<?xml version="1.0" encoding="UTF-8"?>
<svg data-name="Layer 1" version="1.1" viewBox="0 0 1501 1501" xmlns="http://www.w3.org/2000/svg">
 <defs>
  <style>.cls-1 {
        opacity: .52;
      }

      .cls-1, .cls-2, .cls-3 {
        isolation: isolate;
      }

      .cls-1, .cls-2, .cls-3, .cls-4 {
        fill: #fff;
        stroke-width: 0px;
      }

      .cls-5 {
        fill: #0098ea;
        stroke: #231f20;
        stroke-miterlimit: 10;
      }

      .cls-2 {
        opacity: .74;
      }

      .cls-3 {
        opacity: .27;
      }</style>
 </defs>
 <rect class="cls-5" x=".5" y=".5" width="1500" height="1500"/>
 <path class="cls-4" d="M1318.45,697.36c-1.01,28.91-20.33,55.76-47.66,63.85-19.9,5.89-40.1,10.82-60.14,16.24-21.33,5.77-42.64,11.64-63.97,17.45-21.15,5.77-42.33,11.5-63.49,17.26-19.24,5.25-38.44,10.56-57.69,15.77-21.17,5.73-42.36,11.35-63.51,17.08-19.09,5.18-38.12,10.48-57.2,15.68-20.99,5.71-42.01,11.35-63.01,17.06-19.22,5.24-38.35,10.86-57.67,15.73-25,6.3-46.97.72-65.57-17.66-10.6-10.5-15.75-23.54-19.46-37.5-4.52-16.96-9.34-33.85-13.92-50.79-4.2-15.51-8.19-31.06-12.43-46.56-3.6-13.11-7.53-26.12-11.12-39.22-4.13-15.01-7.98-30.11-12.07-45.14-5.21-19.18-10.6-38.32-15.8-57.51-5.06-18.72-9.68-37.55-15.05-56.17-3.04-10.55-4.84-21.02-3.16-31.94.92-5.94,1.29-6.11,6.82-3.56,76.41,35.33,152.79,70.69,229.23,105.97,37.46,17.28,74.97,34.46,112.52,51.53,12.27,5.58,23.26,2.4,30.97-8.53,10.75-15.23,21.39-30.51,32.1-45.76,36.43-51.87,72.92-103.7,109.3-155.6,25.11-35.83,50.09-71.75,75.1-107.65,2.9-4.17,4.3-4.61,6.79-.28,4.61,7.99,9.38,16.13,12.26,24.8,5.32,16.01,9.44,32.42,13.84,48.73,4.3,15.99,8.23,32.05,12.48,48.05,2.38,8.97,5.12,17.84,7.59,26.78,3.66,13.24,7.19,26.52,10.83,39.78,4.46,16.28,9.06,32.53,13.45,48.82,4.26,15.81,8.27,31.69,12.53,47.52,3.41,12.64,7.17,25.18,10.5,37.83,2.42,9.24,4.4,18.61,6.58,27.92v.03Z"/>
 <path class="cls-4" d="M642.4,467.4c6.42-5.86,13.16-8.81,20.38-10.8,19.48-5.41,38.95-10.76,58.45-16.08,21.26-5.78,42.55-11.42,63.79-17.24,18.85-5.17,37.63-10.63,56.49-15.77,18.53-5.05,37.15-9.78,55.69-14.79,15.51-4.18,30.96-8.62,46.45-12.87,15.51-4.25,31.04-8.38,46.54-12.6,13.28-3.61,26.51-7.35,39.8-10.91,12.95-3.46,25.96-6.73,38.92-10.19,9.12-2.44,18.2-5.09,27.31-7.59,10.22-2.82,20.45-5.62,30.68-8.39,7.35-2,14.67-4.22,22.11-5.83,6.46-1.4,13.05-2.2,19.62-3,1.45-.17,3.05.73,4.57,1.15-.51,1.51-.69,3.24-1.56,4.48-7.73,11.03-15.65,21.94-23.39,32.96-37.47,53.36-74.9,106.74-112.35,160.12-21.78,31.04-43.63,62.05-65.3,93.15-2.21,3.17-4,4.01-7.73,2.28-49.66-22.98-99.43-45.74-149.1-68.67-35.03-16.17-69.98-32.56-105-48.75-20.07-9.28-40.24-18.37-60.37-27.56-1.77-.81-3.46-1.77-6.03-3.1v.03Z"/>
 <path class="cls-2" d="M558.55,871.54c-23.54-.52-44.96-8.11-64.79-20.38-28.79-17.8-52.19-41.1-69.63-70.11-12.42-20.65-21.01-42.69-20.39-67.32.51-20.81,9.87-37.05,28.11-46.77,7.62-4.06,17.06-5.9,25.82-6.42,25.5-1.53,48.38,7.43,69.74,20.42,26.52,16.13,48.65,37.13,65.58,63.17,13.55,20.85,23.8,43.01,23.98,68.7.16,22.57-8.1,40.47-27.99,52.1-9.34,5.46-19.74,6.67-30.41,6.63h0Z"/>
 <path class="cls-1" d="m376.46 993.47c-26.18-0.27-49.62-8.77-72.15-21.07-17.84-9.75-34.14-21.35-47.49-36.71-11.8-13.59-20.78-28.81-24.4-46.77-5.95-29.56 13.65-53.76 43.33-58.07 32.38-4.69 61.84 3.8 89.94 19.42 21.86 12.15 40.8 27.43 55.31 47.88 8.46 11.92 14.61 24.88 16.96 39.51 3.78 23.67-12.27 47.2-36.87 52.84-8.02 1.84-16.41 2.04-24.63 2.98z"/>
 <path class="cls-3" d="m236.94 1171.6c-20.07 0.35-36.17-2.28-50.89-10.79-21.37-12.36-27.61-35.61-15.32-57.07 9.36-16.34 23.83-27.11 40.07-35.69 21.83-11.54 45.38-17.17 69.9-17.72 18.73-0.41 36.62 3.52 52.42 14.75 17.7 12.57 21.89 36.99 8.57 56.33-14.2 20.61-34.09 33.82-57.71 41.43-16.33 5.26-33 9.16-47.04 8.77z"/>
</svg>
