<?xml version="1.0" encoding="UTF-8"?>
<!-- Created with Inkscape (http://www.inkscape.org/) -->
<svg width="100mm" height="100mm" version="1.1" viewBox="0 0 100 100" xmlns="http://www.w3.org/2000/svg">
 <g stroke-width="1.7857">
  <path d="m50 100c27.614 0 50-22.386 50-50 0-27.614-22.386-50-50-50-27.614 0-50 22.386-50 50 0 27.614 22.386 50 50 50z" fill="#0098ea"/>
  <path d="m67.072 27.907h-34.146c-6.2783 0-10.258 6.7723-7.099 12.247l21.074 36.526c1.3752 2.385 4.8215 2.385 6.1966 0l21.078-36.526c3.1543-5.4661-0.82501-12.247-7.099-12.247zm-20.188 37.82-4.5894-8.8824-11.074-19.806c-0.73053-1.2677 0.17143-2.8921 1.7016-2.8921h13.958v31.585zm21.886-28.693-11.07 19.815-4.5894 8.878v-31.585h13.957c1.5298 0 2.4322 1.6245 1.7017 2.8921z" fill="#fff"/>
 </g>
</svg>
