<?xml version="1.0" encoding="UTF-8"?>
<!-- Created with Inkscape (http://www.inkscape.org/) -->
<svg width="100mm" height="100mm" version="1.1" viewBox="0 0 100 100" xmlns="http://www.w3.org/2000/svg">
 <g fill-rule="evenodd" stroke-width=".29952">
  <path d="m18.309 5.4866-18.234 39.585a0.74245 0.76734 0 0 0 0.1591 0.89524l49.246 48.772a0.75128 0.77648 0 0 0 1.04 0l49.246-48.769a0.74245 0.76734 0 0 0 0.1591-0.89523l-18.234-39.585a0.73655 0.76125 0 0 0-0.67174-0.44457h-62.032a0.73655 0.76125 0 0 0-0.67763 0.44153z" fill="#50af95"/>
  <path d="m58.431 46.611c-0.35354 0.0274-2.1802 0.14007-6.2548 0.14007-3.2408 0-5.5418-0.10048-6.3491-0.14007-12.524-0.56942-21.873-2.8227-21.873-5.5206s9.3483-4.9481 21.873-5.5267v8.8031c0.81905 0.0609 3.1642 0.20402 6.4051 0.20402 3.889 0 5.8364-0.16748 6.187-0.20097v-8.8001c12.498 0.57551 21.826 2.8288 21.826 5.5206s-9.3248 4.9451-21.826 5.5176zm0-11.952v-7.8775h17.442v-12.013h-47.487v12.013h17.439v7.8744c-14.174 0.67295-24.834 3.5748-24.834 7.0523 0 3.4774 10.659 6.3763 24.834 7.0523v25.243h12.604v-25.252c14.142-0.67295 24.784-3.5718 24.784-7.0462 0-3.4744-10.633-6.3732-24.784-7.0492z" fill="#fff"/>
 </g>
</svg>
